<?xml version="1.0" encoding="utf-8"?>
<!-- Generator: Adobe Illustrator 23.0.4, SVG Export Plug-In . SVG Version: 6.00 Build 0)  -->
<svg version="1.1" id="Layer_1" xmlns="http://www.w3.org/2000/svg" xmlns:xlink="http://www.w3.org/1999/xlink" x="0px" y="0px"
	 viewBox="0 0 2730 1024" style="enable-background:new 0 0 2730 1024;" xml:space="preserve">
<style type="text/css">
	.st0{display:none;fill:none;}
	.st1{fill:none;}
	.st2{fill:url(#Background_8:3_1_);}
	.st3{fill:#FFFFFF;}
	.st4{display:none;fill:#FFFFFF;}
	.st5{display:none;}
	.st6{display:inline;fill:#FFFFFF;}
	.st7{clip-path:url(#SVGID_2_);fill:#FFFFFF;}
</style>
<path id="Rounded_Corners_Clip_1_" class="st0" d="M1697,1024h-664c-99.4,0-180-80.6-180-180V180c0-99.4,80.6-180,180-180h664
	c99.4,0,180,80.6,180,180v664C1877,943.4,1796.4,1024,1697,1024z"/>
<rect id="Square_Clip" x="853" class="st1" width="1024" height="1024"/>
<path id="_x31_6:9_Clip" class="st0" d="M2275,1024H455V0h1820V1024z"/>
<linearGradient id="Background_8:3_1_" gradientUnits="userSpaceOnUse" x1="1365" y1="2436" x2="1365" y2="1412" gradientTransform="matrix(1 0 0 1 0 -1412)">
	<stop  offset="0" style="stop-color:#660000"/>
	<stop  offset="1" style="stop-color:#990000"/>
</linearGradient>
<rect id="Background_8:3" class="st2" width="2730" height="1024"/>
<g id="Logo">
	<path id="Moon_Fill_1_" class="st0" d="M1493.3,669.8l78.2-119.2c0,0,24.2,18.1,39.6,18.1c16.8,0,38.3-18.1,38.3-18.1l105.1,162.8
		c30.9-60.1,47.3-125.9,47.3-197.7c0-242.1-196.1-437.8-437.5-437.8S927.9,272.6,927.9,514.4c0,183.6,113.8,340.4,274.3,404.9
		l229-357.9L1493.3,669.8z"/>
	<path id="MoonAndMountains" class="st3" d="M1806.5,515.7c0-244.1-198.4-442.2-441.8-442.2c-118.2,0-229,45.7-312.2,128.9
		c-83,83-129,193.8-129,312c0,89.6,26.9,176.3,77.9,249.5c49.4,71.5,118.5,126.9,199.1,159.5l3.4,1.3l51.4-79.9
		c59.4-88.6,153.1-223.9,174.6-231.7c11.1-0.7,23.2,24.5,55.7,68.5l-176.7,268.9h0.3c43-62.4,240.1-346.5,268.9-368
		c11.8,4.7,22.8,9.4,32.9,9.4c9.7,0,17.5-3.7,31.6-9.4c19.8,16.5,66.1,68.8,112.5,141.3c7.1-13.1,13.1-27.2,18.5-41.3
		C1795.4,630.2,1806.5,573.8,1806.5,515.7z M1650.7,543.9l-3.7,3.4c-0.3,0.3-20.8,16.8-35.6,16.8c-11.4,0-30.6-12.4-36.9-17.1
		l-3.7-3l-76.9,117.2l-62.1-108.4l-231.3,360.7c-77.9-31.9-144-85.6-191.7-154.8c-49.7-72.1-76.2-156.7-76.2-244.3
		c0-115.8,45-224.6,126.2-305.9c81.2-81.3,190-126.2,305.9-126.2c238.7,0,433.1,194.4,433.1,433.4c0,66.8-14.4,130.3-43.6,189
		L1650.7,543.9z"/>
	<g id="App_Logo">
		<path id="ONVIF" class="st4" d="M739.7,466.3c0,10.2-1.8,19.7-5.5,28.3c-3.7,8.6-8.9,16.1-15.6,22.3c-6.3,5.9-13.4,10.3-21.3,13.1
			c-7.9,2.8-16.3,4.3-25.2,4.3c-8.8,0-17.1-1.4-24.9-4.1c-7.8-2.7-14.7-6.8-20.8-12.2c-6.8-6.1-12.2-13.6-16.1-22.5
			c-3.9-8.8-5.9-18.6-5.9-29.3c0-9.9,1.6-18.9,4.8-27.1s8.1-15.5,14.7-22c6-6,13.1-10.6,21.3-13.8c8.2-3.2,17.1-4.8,26.7-4.8
			c9.4,0,18.1,1.5,26.1,4.5s15.1,7.3,21.2,13.1c6.8,6.5,12,14,15.4,22.6C738,447.2,739.7,456.5,739.7,466.3z M707.1,467.3
			c0-6.5-1.1-12.9-3.3-19.2c-2.2-6.4-5.5-11.6-10-15.8c-2.8-2.7-6-4.8-9.7-6.3c-3.6-1.5-7.7-2.3-12.2-2.3c-4.4,0-8.5,0.8-12.2,2.3
			c-3.7,1.6-7.1,3.9-10.3,6.9c-4,4-7.1,8.9-9.3,14.9s-3.3,12.1-3.3,18.4c0,7,1.1,13.4,3.3,19.2s5.4,10.7,9.6,14.7
			c2.8,2.7,6.1,4.8,9.9,6.4s7.9,2.4,12.3,2.4c4.3,0,8.3-0.8,12-2.3s7.1-3.7,10.1-6.6c3.9-3.7,7-8.5,9.4-14.3
			C706,480,707.1,473.8,707.1,467.3z M888.7,402c-0.1,11.1-0.2,22.3-0.3,33.6c-0.1,11.2-0.1,20.1-0.1,26.5c0,14.5,0,27.6,0.1,39.1
			s0.1,18.8,0.1,21.9l-22.9,9.3c-16.2-21.5-31.2-40.7-44.9-57.5c-13.8-16.8-22.2-27-25.2-30.5l-0.5,0.2c0,13.8,0.1,30.4,0.2,49.9
			c0.2,19.5,0.2,31.5,0.2,36h-29.6c0.1-3.2,0.1-10.2,0.2-21.1s0.1-24.4,0.1-40.6c0-6.6,0-15-0.1-25.4c-0.1-10.3-0.2-21.4-0.3-33.2
			l24.8-10c2.8,3.4,11.2,13.7,25,30.8c13.9,17.1,28.3,34.5,43.4,52.2l0.4-0.2c0-8.8-0.1-21.9-0.3-39.2s0-31.3,0-41.8L888.7,402
			L888.7,402z M1041.7,409.3c-1.2,2.8-7.9,18.2-20.1,46.4c-12.3,28.2-23.3,53.5-33.1,75.9H957c-10.2-23.7-20.1-46.3-29.6-68
			s-17.1-39.6-22.9-53.9l31.4-10.2c0.8,2.7,5.4,14.6,13.8,35.7c8.4,21.1,16.3,40.7,23.8,58.6h0.7c7.9-19.2,16-39.2,24.3-60
			c8.4-20.8,12.9-32.2,13.6-34.3L1041.7,409.3z M1090,530.5h-31.8c0.1-5.4,0.1-13.3,0.2-23.6c0.1-10.3,0.1-24.3,0.1-41.9
			c0-7.4,0-16.8-0.1-28.2c-0.1-11.4-0.2-22.9-0.3-34.8h31.9c-0.1,8.8-0.1,18.9-0.2,30.3s-0.1,21.6-0.1,30.5c0,18.1,0,32.1,0.1,42
			C1089.9,514.7,1090,523.2,1090,530.5z M1215.6,426.8c-1.9,0-6.1,0-12.9-0.1c-6.7-0.1-13.6-0.1-20.7-0.1c-4.3,0-9,0-14.2,0
			s-9.4,0-12.8,0c0,4.7,0,10.1-0.1,16.1s-0.1,11.3-0.1,16c2.2,0,5.7,0,10.7,0c4.9,0,9.1,0,12.6,0c7.5,0,15,0,22.5-0.1
			c7.4-0.1,12-0.1,13.7-0.1v20.7c-1.9,0-7,0-15.5-0.1s-15.6-0.1-21.3-0.1c-3,0-6.8,0-11.4,0s-8,0-10.1,0c0,10.4,0,19.9,0.1,28.5
			s0.1,16.2,0.2,22.7h-31.8c0.1-4.5,0.1-11.4,0.2-20.8c0.1-9.4,0.1-24.3,0.1-44.6c0-7.4,0-16.8-0.1-28.2
			c-0.1-11.4-0.2-22.9-0.3-34.7c4.3,0,10.2,0,17.9,0c7.6,0,16,0,25.2,0c10.3,0,20.4,0,30.2,0s15.8,0,17.8,0L1215.6,426.8
			L1215.6,426.8z"/>
		<path id="Single_Eye" class="st4" d="M910,197.5c32.6,0,59,26.4,59,59s-26.4,59-59,59s-59-26.4-59-59S877.4,197.5,910,197.5z
			 M1120.9,278.6c-2.8,2.6-6.4,3.9-9.9,3.9c-0.3,0-0.6,0-0.9,0c-9.9,9.3-28.1,25.1-52.4,41.1c-21.8,14.3-44,25.7-66,33.9
			C964,367.8,936.5,373,910,373s-54-5.2-81.8-15.6c-22-8.2-44.2-19.6-66-33.9c-24.5-16.1-42.7-32-52.6-41.3
			c-4.4,0.8-9.1-0.4-12.6-3.7c-5.8-5.5-6.1-14.7-0.6-20.5c1-1,24.2-25.5,61.8-50.2c50.2-33,102.3-50.4,150.8-50.4
			s100.6,17.4,150.8,50.4c37.5,24.7,60.8,49.1,61.8,50.2C1127,263.9,1126.8,273.1,1120.9,278.6z M960,193.5c-16.2-4.3-33.3-7-51-7
			c-16.6,0-32.7,2.3-48,6.2c-19.1,14.7-31.5,37.9-31.5,63.8c0,44.4,36.1,80.5,80.5,80.5s80.5-36.1,80.5-80.5
			C990.5,231,978.6,208.2,960,193.5z M1101.1,278.6c-0.2-0.2-0.4-0.4-0.6-0.6s-22.3-23.4-57.2-46.2c-17.1-11.2-39.2-23.5-64.5-32.4
			c12.9,15.5,20.7,35.5,20.7,57.2c0,49.4-40.1,89.5-89.5,89.5s-89.5-40.1-89.5-89.5c0-22.2,8.1-42.5,21.6-58.2
			c-26.4,9-49.6,21.9-67.3,33.4c-32.6,21.3-54,42.9-56.8,45.9c26.2,24.2,102.3,86.3,192,86.3C998.6,364,1073.8,303.5,1101.1,278.6z"
			/>
		<g id="Multi_Eye_1_" class="st5">
			<path id="Eye" class="st6" d="M913,148c16,0,28.9,12.9,28.9,28.9S929,205.8,913,205.8s-28.9-12.9-28.9-28.9S897,148,913,148z
				 M1016.3,187.8c-1.4,1.3-3.1,1.9-4.8,1.9c-0.1,0-0.3,0-0.4,0c-4.8,4.6-13.8,12.3-25.7,20.1c-10.7,7-21.6,12.6-32.3,16.6
				c-13.6,5-27,7.6-40,7.6s-26.4-2.5-40.1-7.6c-10.8-4-21.6-9.6-32.3-16.6c-12-7.9-20.9-15.7-25.8-20.2c-2.2,0.4-4.5-0.2-6.2-1.8
				c-2.8-2.7-3-7.2-0.3-10c0.5-0.5,11.9-12.5,30.3-24.6c24.6-16.2,50.1-24.7,73.9-24.7s49.3,8.5,73.9,24.7
				c18.4,12.1,29.8,24,30.3,24.6C1019.3,180.6,1019.2,185.1,1016.3,187.8z M937.5,146.1c-7.9-2.1-16.3-3.4-25-3.4
				c-8.1,0-16,1.1-23.5,3c-9.4,7.2-15.4,18.6-15.4,31.2c0,21.7,17.7,39.4,39.4,39.4s39.4-17.7,39.4-39.4
				C952.4,164.4,946.6,153.3,937.5,146.1z M1006.6,187.8c-0.1-0.1-0.2-0.2-0.3-0.3s-10.9-11.5-28-22.6c-8.4-5.5-19.2-11.5-31.6-15.9
				c6.3,7.6,10.1,17.4,10.1,28c0,24.2-19.6,43.8-43.8,43.8s-43.8-19.6-43.8-43.8c0-10.9,4-20.8,10.6-28.5
				c-12.9,4.4-24.3,10.7-33,16.4c-16,10.4-26.4,21-27.8,22.5c12.8,11.9,50.1,42.3,94,42.3C956.4,229.6,993.2,200,1006.6,187.8z"/>
			<path id="Eye_1_" class="st6" d="M1113,267c16,0,28.9,12.9,28.9,28.9s-12.9,28.9-28.9,28.9s-28.9-12.9-28.9-28.9
				S1097,267,1113,267z M1216.3,306.8c-1.4,1.3-3.1,1.9-4.8,1.9c-0.1,0-0.3,0-0.4,0c-4.8,4.6-13.8,12.3-25.7,20.1
				c-10.7,7-21.6,12.6-32.3,16.6c-13.6,5-27,7.6-40,7.6s-26.4-2.5-40.1-7.6c-10.8-4-21.6-9.6-32.3-16.6c-12-7.9-20.9-15.7-25.8-20.2
				c-2.2,0.4-4.5-0.2-6.2-1.8c-2.8-2.7-3-7.2-0.3-10c0.5-0.5,11.9-12.5,30.3-24.6c24.6-16.2,50.1-24.7,73.9-24.7s49.3,8.5,73.9,24.7
				c18.4,12.1,29.8,24,30.3,24.6C1219.3,299.6,1219.2,304.1,1216.3,306.8z M1137.5,265.1c-7.9-2.1-16.3-3.4-25-3.4
				c-8.1,0-16,1.1-23.5,3c-9.4,7.2-15.4,18.6-15.4,31.2c0,21.7,17.7,39.4,39.4,39.4s39.4-17.7,39.4-39.4
				C1152.4,283.4,1146.6,272.3,1137.5,265.1z M1206.6,306.8c-0.1-0.1-0.2-0.2-0.3-0.3c-0.1-0.1-10.9-11.5-28-22.6
				c-8.4-5.5-19.2-11.5-31.6-15.9c6.3,7.6,10.1,17.4,10.1,28c0,24.2-19.6,43.8-43.8,43.8s-43.8-19.6-43.8-43.8
				c0-10.9,4-20.8,10.6-28.5c-12.9,4.4-24.3,10.7-33,16.4c-16,10.4-26.4,21-27.8,22.5c12.8,11.9,50.1,42.3,94,42.3
				C1156.4,348.6,1193.2,319,1206.6,306.8z"/>
			<path id="Eye_2_" class="st6" d="M708,267c16,0,28.9,12.9,28.9,28.9S724,324.8,708,324.8s-28.9-12.9-28.9-28.9S692,267,708,267z
				 M811.3,306.8c-1.4,1.3-3.1,1.9-4.8,1.9c-0.1,0-0.3,0-0.4,0c-4.8,4.6-13.8,12.3-25.7,20.1c-10.7,7-21.6,12.6-32.3,16.6
				c-13.6,5-27,7.6-40,7.6s-26.4-2.5-40.1-7.6c-10.8-4-21.6-9.6-32.3-16.6c-12-7.9-20.9-15.7-25.8-20.2c-2.2,0.4-4.5-0.2-6.2-1.8
				c-2.8-2.7-3-7.2-0.3-10c0.5-0.5,11.9-12.5,30.3-24.6c24.6-16.2,50.1-24.7,73.9-24.7c23.8,0,49.3,8.5,73.9,24.7
				c18.4,12.1,29.8,24,30.3,24.6C814.3,299.6,814.2,304.1,811.3,306.8z M732.5,265.1c-7.9-2.1-16.3-3.4-25-3.4c-8.1,0-16,1.1-23.5,3
				c-9.4,7.2-15.4,18.6-15.4,31.2c0,21.7,17.7,39.4,39.4,39.4s39.4-17.7,39.4-39.4C747.4,283.4,741.6,272.3,732.5,265.1z
				 M801.6,306.8c-0.1-0.1-0.2-0.2-0.3-0.3c-0.1-0.1-10.9-11.5-28-22.6c-8.4-5.5-19.2-11.5-31.6-15.9c6.3,7.6,10.1,17.4,10.1,28
				c0,24.2-19.6,43.8-43.8,43.8s-43.8-19.6-43.8-43.8c0-10.9,4-20.8,10.6-28.5c-12.9,4.4-24.3,10.7-33,16.4
				c-16,10.4-26.4,21-27.8,22.5c12.8,11.9,50.1,42.3,94,42.3C751.4,348.6,788.2,319,801.6,306.8z"/>
		</g>
		<g>
			<defs>
				<path id="SVGID_1_" d="M1493.5,669.8l78.2-119.2c0,0,24.2,18.1,39.6,18.1c16.8,0,38.3-18.1,38.3-18.1l105.1,162.8
					c30.9-60.1,47.3-125.9,47.3-197.7c0-242.1-196.1-437.8-437.5-437.8S928,272.6,928,514.4c0,183.6,113.8,340.4,274.3,404.9
					l229-357.9L1493.5,669.8z"/>
			</defs>
			<clipPath id="SVGID_2_">
				<use xlink:href="#SVGID_1_"  style="overflow:visible;"/>
			</clipPath>
			<path id="Hathor_Hieroglyph" class="st7" d="M1528.1,652.4c-1.3-1.4-2.7-2.8-4.1-4.2c25.1,13.7,48.5,30,74.8,41.3
				c-12.2-12.9-27.1-22.2-40.6-33.5c1.1,0.5,2.1,1,3.2,1.5c3.1,1.2,6.2,2.7,9.4,3.5c4,1,7.3-0.5,9.2-4.1c1.9-3.6,0.5-6.8-2.2-9.5
				c-0.9-0.9-1.9-1.7-2.9-2.4c-5.9-4.1-11.8-8.1-17.7-12.2c-30.9-21.7-61.8-43.4-92.6-65.3c-6.1-4.3-12.4-8.3-16.8-14.9
				c-12-18.1-24.3-36.1-37.1-53.7c-27.1-37.3-54.6-74.5-82.1-111.5c-12.7-17.2-27-32.8-47.3-41.4c-0.7-0.3-1.4-1.3-1.6-2.1
				c-0.7-2.6-1.1-5.2-1.8-7.8c-5-20.6-15.8-36.7-36.8-43.5c-23.2-7.5-46.7-7.4-69.8,0.6c-11.6,4-21.8,10.6-26.9,22.6
				c-0.9,2.1-1.2,4.4-1.8,6.7c2.4,0.1,4.8,0.5,7.2,0.3c8.1-0.6,14.2,1.3,16.1,10.3c0.4,2,1.5,3.9,2,6c1.3,5.9,4.5,11.4,3,17.9
				c-7.2,31.6-2.5,61.2,15.2,88.7c6.1,9.5,13.6,18,16.8,29.6c9.2,32.8,18.8,65.4,24.4,99c2.7,16.2,5.4,32.4,3.9,49
				c-0.2,2.1,2.4,4.6,4.1,6.6c0.9,1,2.6,1.4,4.3,2.1c-2.9,9.8-5.8,19.5-8.7,29.1c-4.4,14.5-8.8,28.9-13.3,43.3
				c-0.4,1.1-1.8,2.8-2.7,2.8c-12,0.3-24.1,0.5-36.1,0.6c-2.8,0-5.6-0.1-8.4-0.5c-12.8-2-24.1,1.6-34.1,9.5c-3.2,2.6-5,6.2-4.6,11.3
				c4.3-4.3,9.1-3.9,14.1-3.8c6.3,0.1,12.6-0.3,18.9-0.7c4.9-0.3,9.8-1,14.7-0.9c3.4,0.1,6.9,1.7,10.3,1.8
				c19.9,0.6,39.9,1.3,59.8,1.4c18.6,0.1,37.1-0.3,55.7-0.6c14.6-0.2,29.2-0.6,43.9-0.8c11.8-0.1,23.6,0,35.6,0
				c-1.6-1.4-3.1-3-4.8-4.3c-8.1-6.4-17-10.9-27.6-10.9c-2.9,0-5.7,1.4-8.6,1.5c-7.7,0.2-15.5-0.1-23.2,0.1c-3.4,0.1-4.2-1-4.3-4.3
				c-0.7-15.7-1.6-31.4-2.5-47.1c-0.3-5.9-0.7-11.9-1.1-18.4c1.4,0.6,2.1,0.8,2.7,1.1c11.1,5.1,19.8,13.1,27.6,22.4
				c2.6,3.2,5.5,5.2,9.8,3.4c4.4-1.8,4.3-5.4,4-9.1c-1.5-15.3-3.4-30.7-4.5-46c-0.7-9.1-0.1-18.3-0.1-28c5.4,3.6,10.5,6.7,15.3,10.2
				c8.6,6.3,18,11.8,25.4,19.3c15.8,15.9,30.7,32.9,45.9,49.5c19.2,20.9,38.4,41.8,57.6,62.8c2.7,3,5.6,4.4,9.7,3.7
				c5-0.9,9.9-1.7,14.9-2.5c17.7-2.9,35.4-5.7,53.1-8.7c6.8-1.2,8.9-7.5,4.3-12.6C1561.2,688.3,1544.6,670.4,1528.1,652.4
				 M1199.3,422.9c-2.7-6.2-2.3-12,0.1-17.9c5.2-13,14.2-23.5,22.9-34.1c3.8-4.7,7.7-9.3,11.4-14c0.9-1.1,1.5-2.5,2.2-3.8
				c-0.2-0.4-0.5-0.8-0.7-1.2c-3,1-6.4,1.4-9.1,3.1c-17.5,10.7-30.6,25.3-39.2,43.9c-0.9,2-1.4,4.1-3.1,6.1c-0.3-2-0.7-4-1-6
				c-2.1-14.1-0.6-27.9,2.2-41.8c1.1-5.4-0.5-11.7-2-17.3c-1.9-7.3-4.7-14.4-7.3-21.5c-1-2.6-2.5-5-4.1-8.1
				c4.3-2.7,8.9-5.5,13.4-8.4c-2.2,7.4-2.4,13.7,5.5,17.2c3.3,1.5,7.5-0.5,9.7-4.1c2.8-4.7,1.7-9.7-4.3-15.8
				c3.6-0.2,6.3-0.4,9.1-0.4c13,0.1,25.3,2.8,36.7,9.3c3.4,2,4.6,4.2,3.5,8.2c-2.5,9.3-8.6,14.9-17.3,17.9
				c-5.6,1.9-11.5,3.3-17.3,5.5c4.2,0.6,8.4,1.1,12.6,1.8c11.3,1.9,21.8,0.4,31.1-6.7c2-1.5,3.9-3.2,6.4-5.4
				c1.8,6.9,3.3,14,5.5,20.9c0.8,2.4,2.5,5.6,4.6,6.3c17.3,6.2,29.6,18.8,40.4,32.7c21.7,27.9,43.3,55.9,64.2,84.5
				c20.8,28.4,40.5,57.6,60.8,86.4c7.8,11.1,16.1,22,24.1,33c0.5,0.7,0.9,1.5,1.9,3.1c-12.5-6.1-24.1-11.6-35.5-17.3
				c-39.3-19.7-78.7-39.2-117.9-59.1c-32.8-16.7-62.4-37.8-87.6-64.8C1212.2,445.6,1204.7,435,1199.3,422.9 M1230.8,524
				c-2.8-10.8-5.7-21.5-8.7-32.7c3.7,1.4,4.8,4.3,5.7,7.5c3.8,13.6,7.4,27.3,11.6,40.8c4.9,16,12.7,30.8,21.4,45
				c9.2,14.9,18.6,29.6,27.9,44.3c-4.9,4-9.5,7.7-13.5,11c-6.3-5.2-12.5-10.7-19-15.6c-3.2-2.4-8.4-3.1-10.2-6.1
				c-1.8-3-0.5-7.9-0.7-11.9C1243.8,578.2,1237.8,551,1230.8,524 M1287.9,710.3c-7.2-0.5-14.3-1-21,2.6c-0.7,0.4-1.8,0.6-2.4,0.4
				c-8.6-4-17.9-2.7-26.9-3.1c-0.4,0-0.8-0.2-1.7-0.4c6.8-22.5,13.5-44.8,20.6-68.4c3.7,4.7,7,8.6,10,12.7c4,5.5,7.8,6.3,13,1.9
				c3.2-2.7,6.1-5.8,9.1-8.8c1.2-1.1,2.4-2.2,3.6-3.4c0.4,0.2,0.7,0.3,1.1,0.5c1.2,22,2.3,43.9,3.5,66.6
				C1293.8,710.7,1290.8,710.6,1287.9,710.3 M1303.7,623.2c-1.1-0.2-2.3-1.2-2.9-2.2c-11.4-18.3-22.9-36.6-34-55.1
				c-9.7-16.2-15.4-34.1-20.3-53.2c2.6,1.9,4.4,3.4,6.4,4.8c22.8,15.8,45.6,31.7,68.5,47.5c3.8,2.6,7.7,5.2,11.7,7.4
				c2.9,1.6,3.9,3.6,4,7c0.4,18.8,1,37.6,1.6,56.4c0,1.5,0.3,2.9,0.5,5.4C1328.1,632.3,1316.8,625.9,1303.7,623.2 M1545.3,709.1
				c-12.4,2.1-24.8,4.3-37.3,6.2c-1.2,0.2-3.1-0.4-3.9-1.3c-15.5-16.6-31-33.4-46.4-50.1c-19-20.6-37.3-41.7-57.1-61.5
				c-9.1-9.1-20.6-16-31.4-23.2c-24.8-16.6-49.9-32.9-74.9-49.3c-1.6-1-3.1-2.2-4.6-3.2c0.1-0.2,0.3-0.4,0.4-0.7
				c0.8,0.4,1.6,0.8,2.5,1.2c26.3,13.5,52.5,27.1,78.9,40.3c33.2,16.6,66.4,33.2,99.9,49.2c8.6,4.1,14.8,10,20.9,16.9
				c15,17.1,30.4,33.9,45.7,50.7c6.6,7.3,13.2,14.5,20.4,22.3C1553.8,707.6,1549.6,708.4,1545.3,709.1 M1097.2,780h536V244h-536V780
				z M1519.8,265.1h92v91.3h-92V265.1z M1118.2,758.9V265.1h381.3v111.5H1612v382.3H1118.2z"/>
		</g>
	</g>
</g>
</svg>
